<svg xmlns="http://www.w3.org/2000/svg" width="88px" height="88px" viewBox="0 0 88 88"><path fill="#3C4043" d="M44,7.33333333 C29.3333333,7.33333333 14.6666667,9.16666667 14.6666667,22 L14.6666667,56.8333333 C14.6666667,63.91 20.4233333,69.6666667 27.5,69.6666667 L22,75.1666667 L22,77 L30.1766667,77 L37.51,69.6666667 L51.3333333,69.6666667 L58.6666667,77 L66,77 L66,75.1666667 L60.5,69.6666667 C67.5766667,69.6666667 73.3333333,63.91 73.3333333,56.8333333 L73.3333333,22 C73.3333333,9.16666667 60.2066667,7.33333333 44,7.33333333 L44,7.33333333 Z M27.5,62.3333333 C24.4566667,62.3333333 22,59.8766667 22,56.8333333 C22,53.79 24.4566667,51.3333333 27.5,51.3333333 C30.5433333,51.3333333 33,53.79 33,56.8333333 C33,59.8766667 30.5433333,62.3333333 27.5,62.3333333 L27.5,62.3333333 Z M40.3333333,36.6666667 L22,36.6666667 L22,22 L40.3333333,22 L40.3333333,36.6666667 L40.3333333,36.6666667 Z M47.6666667,36.6666667 L47.6666667,22 L66,22 L66,36.6666667 L47.6666667,36.6666667 L47.6666667,36.6666667 Z M60.5,62.3333333 C57.4566667,62.3333333 55,59.8766667 55,56.8333333 C55,53.79 57.4566667,51.3333333 60.5,51.3333333 C63.5433333,51.3333333 66,53.79 66,56.8333333 C66,59.8766667 63.5433333,62.3333333 60.5,62.3333333 L60.5,62.3333333 Z"/></svg>